<svg width="406" height="188" viewBox="0 0 406 188" fill="none" xmlns="http://www.w3.org/2000/svg">
<path d="M79.2178 2.84328H49.0079L14 15.4604L22.1744 45.1371L43.6767 39.9837V127.237H79.2178V2.84328Z" fill="url(#paint0_linear)"/>
<path fill-rule="evenodd" clip-rule="evenodd" d="M145.814 130.08C162.518 130.08 175.432 124.216 184.554 112.487C193.676 100.64 198.237 84.8246 198.237 65.0401C198.237 45.2556 193.676 29.4991 184.554 17.7705C175.432 5.9235 162.518 0 145.814 0C129.11 0 116.197 5.9235 107.074 17.7705C97.9522 29.4991 93.3911 45.2556 93.3911 65.0401C93.3911 84.8246 97.9522 100.64 107.074 112.487C116.197 124.216 129.11 130.08 145.814 130.08ZM145.814 95.6054C134.559 95.6054 128.932 85.417 128.932 65.0401C128.932 44.6632 134.559 34.4748 145.814 34.4748C157.069 34.4748 162.696 44.6632 162.696 65.0401C162.696 85.417 157.069 95.6054 145.814 95.6054Z" fill="url(#paint1_linear)"/>
<path fill-rule="evenodd" clip-rule="evenodd" d="M310.14 62.2459L271.911 128.459C267.539 129.54 262.818 130.08 257.747 130.08C241.043 130.08 228.13 124.216 219.008 112.487C209.886 100.64 205.324 84.8246 205.324 65.0401C205.324 45.2556 209.886 29.4991 219.008 17.7705C228.13 5.9235 241.043 0 257.747 0C274.452 0 287.365 5.9235 296.487 17.7705C305.176 28.9415 309.727 43.7666 310.14 62.2459ZM257.747 95.6054C246.493 95.6054 240.865 85.417 240.865 65.0401C240.865 44.6632 246.493 34.4748 257.747 34.4748C269.002 34.4748 274.629 44.6632 274.629 65.0401C274.629 85.417 269.002 95.6054 257.747 95.6054Z" fill="url(#paint2_linear)"/>
<path d="M315.846 50.2816L317.746 51.3785L266.003 141L264.104 139.903L315.846 50.2816Z" fill="url(#paint3_linear)"/>
<path d="M353.166 85.9347C349.936 89.0968 345.899 90.6779 341.055 90.6779C336.211 90.6779 332.141 89.0632 328.844 85.8338C325.615 82.6044 324 78.6685 324 74.0263C324 69.384 325.615 65.4482 328.844 62.2188C332.141 58.9893 336.211 57.3746 341.055 57.3746C345.899 57.3746 349.936 58.9893 353.166 62.2188C356.395 65.3809 358.01 69.3167 358.01 74.0263C358.01 78.7358 356.395 82.7053 353.166 85.9347ZM331.165 118.733L377.184 67.5675L383.34 70.9987L337.22 122.266L331.165 118.733ZM336.413 78.6685C337.624 79.8796 339.138 80.4851 340.954 80.4851C342.771 80.4851 344.285 79.8796 345.496 78.6685C346.707 77.3902 347.312 75.8428 347.312 74.0263C347.312 72.2097 346.707 70.6959 345.496 69.4849C344.285 68.2739 342.771 67.6684 340.954 67.6684C339.138 67.6684 337.624 68.2739 336.413 69.4849C335.269 70.6959 334.697 72.2097 334.697 74.0263C334.697 75.8428 335.269 77.3902 336.413 78.6685ZM387.276 125.798C384.047 129.027 380.01 130.642 375.166 130.642C370.322 130.642 366.285 129.027 363.056 125.798C359.826 122.568 358.212 118.632 358.212 113.99C358.212 109.348 359.826 105.412 363.056 102.183C366.285 98.9533 370.322 97.3386 375.166 97.3386C380.01 97.3386 384.047 98.9533 387.276 102.183C390.506 105.412 392.12 109.348 392.12 113.99C392.12 118.632 390.506 122.568 387.276 125.798ZM370.625 118.632C371.836 119.843 373.349 120.449 375.166 120.449C376.982 120.449 378.463 119.81 379.606 118.532C380.817 117.253 381.423 115.739 381.423 113.99C381.423 112.174 380.817 110.66 379.606 109.449C378.463 108.171 376.982 107.531 375.166 107.531C373.349 107.531 371.836 108.171 370.625 109.449C369.481 110.66 368.909 112.174 368.909 113.99C368.909 115.807 369.481 117.354 370.625 118.632Z" fill="url(#paint4_linear)"/>
<g filter="url(#filter0_d)">
<path fill-rule="evenodd" clip-rule="evenodd" d="M371.768 154.232L391.036 173.5H14V168.5H378.964L368.232 157.768L371.768 154.232Z" fill="#D97EF4"/>
</g>
<defs>
<filter id="filter0_d" x="0" y="140.232" width="405.036" height="47.2678" filterUnits="userSpaceOnUse" color-interpolation-filters="sRGB">
<feFlood flood-opacity="0" result="BackgroundImageFix"/>
<feColorMatrix in="SourceAlpha" type="matrix" values="0 0 0 0 0 0 0 0 0 0 0 0 0 0 0 0 0 0 127 0"/>
<feOffset/>
<feGaussianBlur stdDeviation="7"/>
<feColorMatrix type="matrix" values="0 0 0 0 0.85098 0 0 0 0 0.494118 0 0 0 0 0.956863 0 0 0 1 0"/>
<feBlend mode="normal" in2="BackgroundImageFix" result="effect1_dropShadow"/>
<feBlend mode="normal" in="SourceGraphic" in2="effect1_dropShadow" result="shape"/>
</filter>
<linearGradient id="paint0_linear" x1="14" y1="141" x2="396" y2="141" gradientUnits="userSpaceOnUse">
<stop stop-color="#1357C2"/>
<stop offset="1" stop-color="#00BFE9"/>
</linearGradient>
<linearGradient id="paint1_linear" x1="14" y1="141" x2="396" y2="141" gradientUnits="userSpaceOnUse">
<stop stop-color="#1357C2"/>
<stop offset="1" stop-color="#00BFE9"/>
</linearGradient>
<linearGradient id="paint2_linear" x1="14" y1="141" x2="396" y2="141" gradientUnits="userSpaceOnUse">
<stop stop-color="#1357C2"/>
<stop offset="1" stop-color="#00BFE9"/>
</linearGradient>
<linearGradient id="paint3_linear" x1="14" y1="141" x2="396" y2="141" gradientUnits="userSpaceOnUse">
<stop stop-color="#1357C2"/>
<stop offset="1" stop-color="#00BFE9"/>
</linearGradient>
<linearGradient id="paint4_linear" x1="14" y1="141" x2="396" y2="141" gradientUnits="userSpaceOnUse">
<stop stop-color="#1357C2"/>
<stop offset="1" stop-color="#00BFE9"/>
</linearGradient>
</defs>
</svg>
